<?xml version="1.0" standalone="no"?>
<!DOCTYPE svg PUBLIC "-//W3C//DTD SVG 20010904//EN"
 "http://www.w3.org/TR/2001/REC-SVG-20010904/DTD/svg10.dtd">
<svg version="1.0" xmlns="http://www.w3.org/2000/svg"
 width="500.000000pt" height="500.000000pt" viewBox="0 0 500.000000 500.000000"
 preserveAspectRatio="xMidYMid meet">

<g transform="translate(0.000000,500.000000) scale(0.100000,-0.100000)"
fill="#000000" stroke="none">
<path d="M1110 4446 c-233 -53 -417 -232 -475 -461 -32 -126 -13 -300 46 -419
188 -384 707 -467 1007 -164 298 302 216 802 -163 989 -131 64 -284 85 -415
55z"/>
<path d="M2362 4445 c-126 -28 -264 -113 -350 -218 -48 -59 -97 -157 -117
-234 -19 -73 -19 -241 0 -313 37 -140 133 -275 253 -353 103 -67 180 -94 317
-110 17 -2 1 -5 -35 -6 -218 -5 -485 -38 -698 -87 l-113 -26 73 -76 c86 -91
140 -187 166 -298 l19 -78 6 45 c14 104 101 255 195 339 65 58 210 133 290
149 76 16 214 13 286 -5 220 -56 413 -247 457 -451 16 -77 25 -84 32 -28 14
101 103 249 200 334 39 35 39 35 16 44 -130 48 -468 110 -696 127 -81 6 -149
12 -150 14 -2 2 27 6 65 9 229 22 436 187 514 412 15 44 28 98 29 120 1 49 9
32 33 -68 26 -111 72 -193 156 -278 123 -124 238 -177 407 -186 158 -9 257 17
390 100 121 75 234 237 262 375 16 76 14 228 -4 297 -96 375 -527 572 -880
401 -173 -84 -304 -248 -336 -422 -18 -93 -21 -94 -35 -15 -23 131 -108 274
-211 356 -156 124 -353 171 -541 130z"/>
<path d="M1868 2484 c-3 -5 -9 -27 -12 -49 -13 -71 -81 -196 -145 -266 -75
-82 -162 -139 -266 -175 -70 -25 -95 -28 -200 -29 -100 0 -132 4 -193 24 -193
63 -350 219 -408 407 -15 46 -27 84 -29 84 -1 0 -18 -24 -38 -53 -196 -296
-220 -611 -70 -911 19 -38 51 -94 71 -124 36 -55 37 -55 40 -26 23 230 225
457 462 520 103 27 255 23 357 -10 193 -62 348 -216 408 -408 14 -44 25 -91
26 -106 0 -15 7 2 15 38 24 115 76 205 173 300 135 134 257 183 446 183 164
-1 283 -44 404 -146 98 -82 190 -233 207 -336 7 -43 24 -67 24 -33 0 47 44
157 91 226 147 220 406 326 663 271 186 -39 365 -182 437 -349 13 -31 27 -56
31 -56 12 0 76 144 99 222 33 113 37 298 10 411 -20 85 -85 252 -101 262 -5 3
-25 -30 -46 -72 -51 -104 -179 -234 -275 -280 -109 -52 -172 -66 -294 -66
-183 1 -321 60 -450 190 -73 73 -148 210 -161 291 -7 46 -24 67 -24 30 -1 -44
-50 -163 -96 -231 -126 -184 -337 -288 -558 -274 -167 10 -297 69 -417 189
-78 78 -142 194 -162 297 -8 36 -16 61 -19 55z"/>
<path d="M1868 1170 c-3 -8 -15 -47 -27 -85 -34 -114 -112 -224 -212 -299
l-59 -45 52 -15 c89 -26 217 -53 358 -77 122 -21 167 -23 470 -23 305 -1 347
2 470 23 155 26 274 52 377 83 l72 21 -69 74 c-74 80 -131 180 -151 268 -17
74 -22 84 -26 55 -8 -53 -45 -150 -78 -205 -119 -198 -311 -307 -538 -307
-124 0 -176 12 -287 64 -161 76 -298 249 -334 420 -8 35 -16 56 -18 48z"/>
</g>
</svg>
